# xmcd
# 
# Track frame offsets:
#     150
#     12210
#     30402
#     43942
#     59885
#     79492
#     96310
#     113290
#     127697
#     142657
#     157575
#     172060
# 
# Disc length: 2527
# 
# Revision: 6
# Processed by: cddbd v1.5.2PL0 Copyright (c) Steve Scherf et al.
# Submitted via: BonkEnc v1.0.6
# 
DISCID=8e09dd0c
DTITLE=Milionario and José Rico - Vol. 21 - Nasci Para
DYEAR=0
DGENRE=
TTITLE0=Nasci para te Amar
TTITLE1=Amada Amante
TTITLE2=A Fossa
TTITLE3=Esse Meu coração Sem Juizo
TTITLE4=Meu pobre Coração
TTITLE5=Tu Y Las Nubes
TTITLE6=Heroi da Velocidade
TTITLE7=A Pé na Estrada
TTITLE8=Gangorra
TTITLE9=Direito de Chorar
TTITLE10=Faz um Ano
TTITLE11=Caboclo Nato
EXTD=
EXTT0=
EXTT1=
EXTT2=
EXTT3=
EXTT4=
EXTT5=
EXTT6=
EXTT7=
EXTT8=
EXTT9=
EXTT10=
EXTT11=
PLAYORDER=
